
<svg width="14px" height="13px" viewBox="0 0 14 13" version="1.1" xmlns="http://www.w3.org/2000/svg" xmlns:xlink="http://www.w3.org/1999/xlink">
    <g id="Page-1" stroke="none" stroke-width="1" fill="none" fill-rule="evenodd">
        <g id="C&amp;D-Landing-Page-v2-Copy-14" transform="translate(-344.000000, -1352.000000)" fill="#FFFFFF" fill-rule="nonzero">
            <g id="Group-28" transform="translate(0.000000, 801.000000)">
                <g id="Group-4" transform="translate(344.000000, 551.000000)">
                    <g id="Group" transform="translate(7.000000, 6.500000) rotate(90.000000) translate(-7.000000, -6.500000) translate(0.500000, -0.500000)">
                        <g id="a-link">
                            <g id="a">
                                <path d="M12.25,6.125 C12.25,5.88583333 12.1654167,5.68166667 11.99625,5.5125 L6.74625,0.2625 C6.57125,0.0875 6.36416667,0 6.125,0 C5.88583333,0 5.68166667,0.0875 5.5125,0.2625 C5.50666667,0.2625 5.50375,0.265416667 5.50375,0.27125 L0.2625,5.5125 C0.0875,5.68166667 0,5.88583333 0,6.125 C0,6.36416667 0.0875,6.57125 0.2625,6.74625 C0.431666667,6.91541667 0.635833333,7 0.875,7 C1.11416667,7 1.32125,6.91541667 1.49625,6.74625 L5.25,2.98375 L5.25,13.125 C5.25,13.3641667 5.3375,13.57125 5.5125,13.74625 C5.68166667,13.9154167 5.88583333,14 6.125,14 C6.36416667,14 6.57125,13.9154167 6.74625,13.74625 C6.91541667,13.57125 7,13.3641667 7,13.125 L7,2.98375 L10.7625,6.74625 C10.9316667,6.91541667 11.1358333,7 11.375,7 C11.6141667,7 11.82125,6.91541667 11.99625,6.74625 C12.1654167,6.57125 12.25,6.36416667 12.25,6.125 Z" id="Path"></path>
                            </g>
                        </g>
                    </g>
                </g>
            </g>
        </g>
    </g>
</svg>