<?xml version="1.0" encoding="UTF-8"?>
<svg width="32px" height="32px" viewBox="0 0 32 32" version="1.1" xmlns="http://www.w3.org/2000/svg" xmlns:xlink="http://www.w3.org/1999/xlink">
    <!-- Generator: Sketch 54.1 (76490) - https://sketchapp.com -->
    <title>Group 14</title>
    <desc>Created with Sketch.</desc>
    <g id="Page-1" stroke="none" stroke-width="1" fill="none" fill-rule="evenodd">
        <g id="C&amp;D-Landing-Page-v2-Copy-4" transform="translate(-551.000000, -1179.000000)">
            <g id="Group-28" transform="translate(0.000000, 801.000000)">
                <g id="Group-26" transform="translate(551.000000, 378.000000)">
                    <g id="Group-14">
                        <circle id="Oval-Copy" fill="#E0EBF8" cx="16" cy="16" r="16"></circle>
                        <g id="Group-13" transform="translate(7.000000, 9.000000)" fill="#0074E4" fill-rule="nonzero">
                            <path d="M3.69490196,10.6777458 L8.58392157,13.6589222 C8.83805252,13.8136324 9.15587134,13.8192417 9.41530342,13.6735957 C9.67473549,13.5279496 9.83543853,13.2536964 9.83568627,12.9561771 L9.83568627,0.822843806 C9.83543853,0.525324529 9.67473549,0.251071356 9.41530342,0.105425279 C9.15587134,-0.0402207989 8.83805252,-0.0346114725 8.58392157,0.120098708 L3.69490196,3.10127518 L0.823529412,3.10127518 C0.368706677,3.10127518 8.73967565e-13,3.46998186 8.73967565e-13,3.92480459 L8.73967565e-13,9.85421636 C8.73967565e-13,10.3090391 0.368706677,10.6777458 0.823529412,10.6777458 L3.69490196,10.6777458 Z M8.19137255,11.5012752 L4.80666667,9.42598106 L4.80666667,4.35303988 L8.19137255,2.28872616 L8.19137255,11.5012752 Z M1.64705882,4.748334 L3.15960784,4.748334 L3.15960784,9.03068694 L1.64705882,9.03068694 L1.64705882,4.748334 Z" id="Shape"></path>
                            <path d="M13.7721569,4.01813792 L13.1901961,3.43617714 L12.0262745,4.60009871 L12.6082353,5.18205949 C13.5485476,6.12402719 13.5485476,7.64950356 12.6082353,8.59147126 L12.0262745,9.17343204 L13.1901961,10.3373536 L13.7721569,9.75539283 C15.3532094,8.16975018 15.3532094,5.60378057 13.7721569,4.01813792 L13.7721569,4.01813792 Z" id="Path"></path>
                            <path d="M16.045098,1.15225557 L14.8701961,2.31617714 L15.4521569,2.89813792 C17.6505717,5.103906 17.6505717,8.67236985 15.4521569,10.8781379 L14.8701961,11.4628438 L16.0341176,12.6267654 L16.6160784,12.0448046 C19.4585678,9.19566868 19.4585678,4.58335227 16.6160784,1.73421636 L16.045098,1.15225557 Z" id="Path"></path>
                        </g>
                    </g>
                </g>
            </g>
        </g>
    </g>
</svg>