
<svg width="32px" height="32px" viewBox="0 0 32 32" version="1.1" xmlns="http://www.w3.org/2000/svg" xmlns:xlink="http://www.w3.org/1999/xlink">
    <g id="Page-1" stroke="none" stroke-width="1" fill="none" fill-rule="evenodd">
        <g id="C&amp;D-Landing-Page-v2-Copy-4" transform="translate(-136.000000, -1088.000000)">
            <g id="Group-28" transform="translate(0.000000, 801.000000)">
                <g id="Group-15" transform="translate(136.000000, 287.000000)">
                    <g id="Group-2">
                        <circle id="Oval" fill="#E0EBF8" cx="16" cy="16" r="16"></circle>
                        <g id="noun_Cable_1594421" transform="translate(8.421053, 6.736842)" fill="#0074E4" fill-rule="nonzero">
                            <path d="M12.6315789,13.6032389 L12.6315789,14.6396761 L14.0566802,14.6396761 L14.0566802,13.6032389 L12.6315789,13.6032389 Z M12.8259109,8.63396548 L13.8623482,8.63396548 L12.8259109,8.63396548 Z M0.582995951,4.72874494 L0.582995951,5.76518219 L2.00809717,5.76518219 L2.00809717,4.72874494 L0.582995951,4.72874494 Z M12.048583,13.0850202 L14.7044534,13.0850202 L14.7044534,9.13360324 L12.048583,9.13360324 L12.048583,13.0850202 Z M0.32388664,6.28340081 L0,6.28340081 L0,10.2995951 L2.65587045,10.2995951 L2.65587045,6.28340081 L0.32388664,6.28340081 Z M12.8259109,9.28173876 L13.8623482,9.28173876 L12.8259109,9.28173876 Z M13.8623482,8.61538462 L13.8623482,3.49797571 C13.8623482,1.55465587 12.3076923,0 10.3643725,0 C8.42105263,0 6.80161943,1.55465587 6.80161943,3.49797571 L6.80161943,15.8704453 C6.80161943,17.2307692 5.70040486,18.3319838 4.34008097,18.3319838 C3.04453441,18.3319838 1.94331984,17.2307692 1.94331984,15.8704453 L1.94331984,10.7530364 L0.842105263,10.7530364 L0.842105263,15.8704453 C0.842105263,17.8137652 2.46153846,19.3684211 4.34008097,19.3684211 C6.28340081,19.3684211 7.90283401,17.8137652 7.90283401,15.8704453 L7.90283401,3.49797571 C7.90283401,2.20242915 9.00404858,1.10121457 10.3643725,1.10121457 C11.7246964,1.10121457 12.8259109,2.20242915 12.8259109,3.49797571 L12.8259109,8.61538462 L13.8623482,8.61538462 Z" id="Shape"></path>
                        </g>
                    </g>
                </g>
            </g>
        </g>
    </g>
</svg>