<?xml version="1.0" encoding="UTF-8"?>
<svg width="61px" height="33px" viewBox="0 0 61 33" version="1.1" xmlns="http://www.w3.org/2000/svg" xmlns:xlink="http://www.w3.org/1999/xlink">
    <!-- Generator: Sketch 54.1 (76490) - https://sketchapp.com -->
    <title>cisco-2</title>
    <desc>Created with Sketch.</desc>
    <defs>
        <polygon id="path-1" points="0.0198851117 0.0105429888 64.9903053 0.0105429888 64.9903053 36.995458 0.0198851117 36.995458"></polygon>
    </defs>
    <g id="Page-1" stroke="none" stroke-width="1" fill="none" fill-rule="evenodd" opacity="0.900000036">
        <g id="C&amp;D-Landing-Page-v2-Copy-4" transform="translate(-837.000000, -1347.000000)">
            <g id="Group-28" transform="translate(0.000000, 801.000000)">
                <g id="cisco-2" transform="translate(836.000000, 545.000000)">
                    <polygon id="Path" fill="#000000" fill-rule="nonzero" points="21 33 18 33 18 23 21 23 21 33"></polygon>
                    <g id="Group" transform="translate(32.500000, 18.500000) scale(-1, 1) rotate(-180.000000) translate(-32.500000, -18.500000) ">
                        <g id="Clipped">
                            <mask id="mask-2" fill="white">
                                <use xlink:href="#path-1"></use>
                            </mask>
                            <g id="a"></g>
                            <g id="Group" mask="url(#mask-2)" fill="#000000" fill-rule="nonzero">
                                <g transform="translate(1.315707, 3.715681)" id="Shape">
                                    <path d="M41.2541076,7.74007002 C41.144649,7.79559661 40.2891879,8.30206641 39.0177841,8.30206641 C37.2992839,8.30206641 36.1070271,7.10740343 36.1070271,5.4946084 C36.1070271,3.93060947 37.2479226,2.68462646 39.0177841,2.68462646 C40.2672962,2.68462646 41.1370711,3.18100052 41.2541076,3.2432576 L41.2541076,0.418132043 C40.9206799,0.325587728 40.0121734,0.0437482219 38.8317044,0.0437482219 C35.8418004,0.0437482219 33.2173198,2.1032799 33.2173198,5.49544971 C33.2173198,8.63774988 35.5917296,10.9429446 38.8317044,10.9429446 C40.0778486,10.9429446 41.0023528,10.6400723 41.2541076,10.5651956 L41.2541076,7.74007002 Z M13.5080343,7.74007002 C13.4011017,7.79559661 12.5464825,8.30206641 11.2750787,8.30206641 C9.55321058,8.30206641 8.36179572,7.10740343 8.36179572,5.4946084 C8.36179572,3.93060947 9.50353321,2.68462646 11.2750787,2.68462646 C12.5245908,2.68462646 13.3935238,3.18100052 13.5080343,3.2432576 L13.5080343,0.418132043 C13.1779745,0.325587728 12.27031,0.0437482219 11.0831051,0.0437482219 C8.0957271,0.0437482219 5.47461442,2.1032799 5.47461442,5.49544971 C5.47461442,8.63774988 7.84902424,10.9429446 11.0839471,10.9429446 C12.3351432,10.9429446 13.2579635,10.6400723 13.5080343,10.5651956 L13.5080343,7.74007002 L13.5080343,7.74007002 Z M49.6159034,8.26252475 C48.0388574,8.26252475 46.8676503,7.02243092 46.8676503,5.4946084 C46.8676503,3.96342064 48.0388574,2.72416812 49.6159034,2.72416812 C51.1912653,2.72416812 52.3658404,3.96342064 52.3658404,5.4946084 C52.3658404,7.02243092 51.1912653,8.26252475 49.6159034,8.26252475 L49.6159034,8.26252475 Z M55.1822946,5.4946084 C55.1822946,2.4835529 52.8558782,0.0437482219 49.6167454,0.0437482219 C46.3759285,0.0437482219 44.0528801,2.4835529 44.0528801,5.49544971 C44.0528801,8.50061603 46.3767705,10.9429446 49.6159034,10.9429446 C52.8558782,10.9429446 55.1822946,8.50061603 55.1822946,5.4946084 L55.1822946,5.4946084 Z M29.900724,8.36348218 C29.8611505,8.37610186 28.7421467,8.68486335 27.8226944,8.68486335 C26.7575779,8.68486335 26.1782893,8.32814708 26.1782893,7.82251859 C26.1782893,7.18143888 26.9596553,6.9576499 27.3966478,6.81967474 L28.1300205,6.58663132 C29.8560985,6.03809593 30.6416745,4.85773525 30.6416745,3.57557582 C30.6416745,0.931332338 28.3144161,0.0429069099 26.28017,0.0429069099 C24.8664699,0.0429069099 23.5420208,0.303713617 23.4115124,0.3306356 L23.4115124,2.75361404 C23.6455855,2.6947222 24.7603793,2.36156267 25.9214825,2.36156267 C27.2442477,2.36156267 27.852164,2.74856617 27.852164,3.34421504 C27.852164,3.87760682 27.3259207,4.18552699 26.6666431,4.39248974 C26.5066651,4.4463337 26.2641722,4.52205178 26.0991423,4.57589574 C24.6189251,5.04366519 23.3845688,5.91358176 23.3845688,7.65509751 C23.3845688,9.6237675 24.859734,10.9454686 27.3099229,10.9454686 C28.6040604,10.9454686 29.821577,10.6316592 29.900724,10.6106264 L29.900724,8.36432349 L29.900724,8.36348218 Z"></path>
                                    <path d="M2.65563425,22.0676127 C2.65563425,22.7928236 2.06287378,23.3809006 1.33623702,23.3809006 C0.609600252,23.3809006 0.0159977967,22.7928236 0.0159977967,22.068454 L0.0159977967,19.3047442 C0.0340821495,18.5893876 0.619655089,18.0188787 1.33581602,18.0188787 C2.05197695,18.0188787 2.63754989,18.5893876 2.65563425,19.3047442 L2.65563425,22.0676127 L2.65563425,22.0676127 Z M9.90432011,25.6936672 C9.90432011,26.4219963 9.31341737,27.0124237 8.58450189,27.0124237 C7.85558641,27.0124237 7.26468366,26.4219963 7.26468366,25.6936672 L7.26468366,19.3047442 C7.26468366,18.5764151 7.85558641,17.9859877 8.58450189,17.9859877 C9.31341737,17.9859877 9.90432011,18.5764151 9.90432011,19.3047442 L9.90432011,25.6945085 L9.90432011,25.6936672 Z M17.153848,30.6557252 C17.153848,31.3809361 16.5610875,31.9698544 15.8344507,31.9698544 C15.106972,31.9698544 14.5142115,31.3809361 14.5142115,30.6557252 L14.5142115,16.6790096 C14.5322959,15.9636529 15.1178688,15.393144 15.8340297,15.393144 C16.5501907,15.393144 17.1357636,15.9636529 17.153848,16.6790096 L17.153848,30.6557252 L17.153848,30.6557252 Z M24.4025338,25.6936672 C24.4025338,26.4219963 23.8116311,27.0124237 23.0827156,27.0124237 C22.3538001,27.0124237 21.7628974,26.4219963 21.7628974,25.6936672 L21.7628974,19.3047442 C21.7628974,18.5764151 22.3538001,17.9859877 23.0827156,17.9859877 C23.8116311,17.9859877 24.4025338,18.5764151 24.4025338,19.3047442 L24.4025338,25.6945085 L24.4025338,25.6936672 Z M31.6436418,22.0676127 C31.6441072,22.7921288 31.0569215,23.3799719 30.3318225,23.3809006 C29.6052443,23.3813696 29.0152089,22.7944425 29.0124252,22.068454 L29.0124252,19.3047442 C29.0124252,18.5787383 29.6014431,17.9901943 30.3280335,17.9901943 C31.0546239,17.9901943 31.6436418,18.5787383 31.6436418,19.3047442 L31.6436418,22.0676127 L31.6436418,22.0676127 Z M38.8956956,25.6936672 C38.8776407,26.4067214 38.293944,26.9753794 37.5800873,26.9753794 C36.8662307,26.9753794 36.282534,26.4067214 36.2644791,25.6936672 L36.2644791,19.3047442 C36.2644791,18.5787383 36.853497,17.9901943 37.5800873,17.9901943 C38.3066777,17.9901943 38.8956956,18.5787383 38.8956956,19.3047442 L38.8956956,25.6945085 L38.8956956,25.6936672 Z M46.1494334,30.6557252 C46.1494334,31.381731 45.5604155,31.9702751 44.8338251,31.9702751 C44.1072348,31.9702751 43.5182169,31.381731 43.5182169,30.6557252 L43.5182169,16.6790096 C43.4970139,16.1956253 43.7430269,15.7396111 44.1588097,15.4915951 C44.5745924,15.2435792 45.0930579,15.2435792 45.5088406,15.4915951 C45.9246234,15.7396111 46.1706364,16.1956253 46.1494334,16.6790096 L46.1494334,30.6557252 L46.1494334,30.6557252 Z M53.4014873,25.6936672 C53.4014873,26.4197194 52.8129367,27.0094791 52.0694602,27.0094791 C51.3429661,27.0090147 50.7542728,26.4204183 50.7542729,25.6945085 L50.7542729,19.3047442 C50.7542729,18.5753267 51.3436654,17.9872497 52.0694602,17.9872497 C52.8129367,17.9872497 53.4014873,18.5753267 53.4014873,19.3047442 L53.4014873,25.6945085 L53.4014873,25.6936672 Z M60.6400692,22.0676127 C60.6400692,22.7943155 60.0504859,23.3834246 59.323198,23.3834246 C58.5959101,23.3834246 58.0063267,22.7943155 58.0063267,22.0676127 L58.0063267,19.3047442 C58.0063267,18.5753267 58.5965612,17.9864084 59.323198,17.9864084 C60.0489928,17.9864084 60.6392273,18.5753267 60.6392273,19.3047442 L60.6392273,22.0676127 L60.6400692,22.0676127 Z"></path>
                                    <path d="M59.1185946,1.61700158 L59.1185946,1.45210444 L58.6487646,1.45210444 L58.6487646,0.231360789 L58.455107,0.231360789 L58.455107,1.45126313 L57.983593,1.45126313 L57.983593,1.61700158 L59.1185946,1.61700158 L59.1185946,1.61700158 Z M59.2171073,1.61700158 L59.5193815,1.61700158 L59.9344822,0.480389128 L59.9412181,0.480389128 L60.342847,1.61616027 L60.6392273,1.61616027 L60.6392273,0.231360789 L60.4413598,0.231360789 L60.4413598,1.36713193 L60.4346239,1.36713193 L60.0136292,0.231360789 L59.8309175,0.231360789 L59.4200268,1.36713193 L59.4107649,1.36713193 L59.4107649,0.231360789 L59.2171073,0.231360789 L59.2171073,1.61700158 L59.2171073,1.61700158 Z"></path>
                                </g>
                            </g>
                        </g>
                    </g>
                </g>
            </g>
        </g>
    </g>
</svg>