
<svg width="32px" height="32px" viewBox="0 0 32 32" version="1.1" xmlns="http://www.w3.org/2000/svg" xmlns:xlink="http://www.w3.org/1999/xlink">
    <g id="Page-1" stroke="none" stroke-width="1" fill="none" fill-rule="evenodd">
        <g id="C&amp;D-Landing-Page-v2-Copy-4" transform="translate(-136.000000, -1216.000000)">
            <g id="Group-28" transform="translate(0.000000, 801.000000)">
                <g id="Group-17" transform="translate(136.000000, 415.000000)">
                    <g id="Group-8">
                        <circle id="Oval-Copy" fill="#E0EBF8" cx="16" cy="16" r="16"></circle>
                        <g id="Group" transform="translate(7.578947, 8.421053)" fill="#0074E4" fill-rule="nonzero">
                            <path d="M7.8585034,7.74965986 C7.40136054,7.79319728 7.00952381,7.68435374 6.61768707,7.48843537 C4.70204082,6.53061224 2.78639456,5.57278912 0.848979592,4.59319728 C0.696598639,4.52789116 0.544217687,4.44081633 0.43537415,4.33197279 C0.108843537,4.04897959 0.108843537,3.72244898 0.43537415,3.46122449 C0.565986395,3.35238095 0.740136054,3.26530612 0.914285714,3.17823129 C2.78639456,2.24217687 4.68027211,1.30612245 6.55238095,0.34829932 C7.42312925,-0.0870748299 8.29387755,-0.0870748299 9.16462585,0.34829932 C11.0367347,1.28435374 12.9088435,2.22040816 14.8027211,3.15646259 C14.9115646,3.22176871 15.0421769,3.26530612 15.1510204,3.35238095 C15.6734694,3.67891156 15.6517007,4.09251701 15.1292517,4.44081633 C15.0204082,4.52789116 14.9115646,4.57142857 14.8027211,4.63673469 C12.9088435,5.57278912 11.014966,6.53061224 9.12108844,7.48843537 C8.7292517,7.68435374 8.31564626,7.81496599 7.8585034,7.74965986 Z" id="Path"></path>
                            <path d="M7.72789116,11.537415 C7.29251701,11.5809524 6.87891156,11.4503401 6.46530612,11.2544218 C4.50612245,10.2748299 2.56870748,9.2952381 0.60952381,8.31564626 C0.304761905,8.16326531 0.0653061224,7.96734694 0.152380952,7.5755102 C0.195918367,7.29251701 0.413605442,7.11836735 0.696598639,7.07482993 C0.936054422,7.03129252 1.1537415,7.16190476 1.34965986,7.2707483 C3.13469388,8.16326531 4.9414966,9.05578231 6.7047619,9.97006803 C7.48843537,10.3619048 8.18503401,10.3836735 8.96870748,9.97006803 C10.7319728,9.05578231 12.5170068,8.18503401 14.2802721,7.29251701 C14.4326531,7.20544218 14.6068027,7.11836735 14.7809524,7.07482993 C15.0857143,7.00952381 15.3251701,7.14013605 15.477551,7.42312925 C15.629932,7.68435374 15.5428571,7.94557823 15.3251701,8.1414966 C15.1945578,8.25034014 15.0421769,8.33741497 14.9115646,8.40272109 C13.1047619,9.3170068 11.3197279,10.2312925 9.51292517,11.1238095 C8.96870748,11.4068027 8.38095238,11.5591837 7.72789116,11.537415 Z" id="Path"></path>
                            <path d="M7.8585034,15.1945578 C7.33605442,15.2380952 6.85714286,15.0857143 6.37823129,14.8462585 C4.50612245,13.9102041 2.65578231,12.9959184 0.783673469,12.0598639 C0.631292517,11.9727891 0.457142857,11.8857143 0.326530612,11.7768707 C0.108843537,11.5809524 0.0653061224,11.3197279 0.217687075,11.0585034 C0.391836735,10.7972789 0.60952381,10.644898 0.936054422,10.7537415 C1.08843537,10.7972789 1.24081633,10.8843537 1.39319728,10.9496599 C3.17823129,11.8421769 4.98503401,12.7346939 6.74829932,13.6489796 C7.48843537,14.0408163 8.18503401,14.0408163 8.92517007,13.6489796 C10.7537415,12.7129252 12.5823129,11.7986395 14.4108844,10.8843537 C14.6721088,10.7537415 14.9115646,10.6231293 15.1945578,10.7972789 C15.5863946,11.014966 15.629932,11.5591837 15.2816327,11.8421769 C15.1510204,11.9510204 14.9986395,12.0163265 14.8462585,12.0816327 C13.0176871,12.9959184 11.1673469,13.9102041 9.33877551,14.8244898 C8.90340136,15.0639456 8.40272109,15.2380952 7.8585034,15.1945578 Z" id="Path"></path>
                        </g>
                    </g>
                </g>
            </g>
        </g>
    </g>
</svg>