<?xml version="1.0" encoding="UTF-8"?>
<svg width="32px" height="32px" viewBox="0 0 32 32" version="1.1" xmlns="http://www.w3.org/2000/svg" xmlns:xlink="http://www.w3.org/1999/xlink">
    <!-- Generator: Sketch 54.1 (76490) - https://sketchapp.com -->
    <title>Group 20</title>
    <desc>Created with Sketch.</desc>
    <g id="Page-1" stroke="none" stroke-width="1" fill="none" fill-rule="evenodd">
        <g id="C&amp;D-Landing-Page-v2-Copy-4" transform="translate(-708.000000, -1179.000000)">
            <g id="Group-28" transform="translate(0.000000, 801.000000)">
                <g id="Group-25" transform="translate(708.000000, 378.000000)">
                    <g id="Group-20">
                        <circle id="Oval-Copy" fill="#E0EBF8" cx="16" cy="16" r="16"></circle>
                        <path d="M23.2,10 L8.8,10 C8.35823842,10.0001598 8.00015983,10.3582384 8,10.8 L8,20.4 C8.00015983,20.8417616 8.35823842,21.1998402 8.8,21.2 L14.8,21.2 C14.7997598,21.8626422 14.2626422,22.3997598 13.6,22.4 L12,22.4 L12,23.2 L20,23.2 L20,22.4 L18.4,22.4 C17.7373578,22.3997598 17.2002402,21.8626422 17.2,21.2 L23.2,21.2 C23.6417616,21.1998402 23.9998402,20.8417616 24,20.4 L24,10.8 C23.9998402,10.3582384 23.6417616,10.0001598 23.2,10 Z M22.4,19.6 L9.6,19.6 L9.6,11.6 L22.4,11.6 L22.4,19.6 Z" id="Shape" fill="#0074E4" fill-rule="nonzero"></path>
                    </g>
                </g>
            </g>
        </g>
    </g>
</svg>