<?xml version="1.0" encoding="UTF-8"?>
<svg width="40px" height="40px" viewBox="0 0 40 40" version="1.1" xmlns="http://www.w3.org/2000/svg" xmlns:xlink="http://www.w3.org/1999/xlink">
    <!-- Generator: Sketch 54.1 (76490) - https://sketchapp.com -->
    <title>fb</title>
    <desc>Created with Sketch.</desc>
    <g id="Page-1" stroke="none" stroke-width="1" fill="none" fill-rule="evenodd">
        <g id="contact-us-" transform="translate(-879.000000, -555.000000)">
            <g id="Group-2" transform="translate(238.000000, 140.000000)">
                <g id="Contacts-#2" transform="translate(0.000000, 16.000000)">
                    <g id="Group-4" transform="translate(585.000000, 99.000000)">
                        <g id="fb" transform="translate(56.000000, 300.000000)">
                            <circle id="Circle" fill="#FFFFFF" cx="20" cy="20" r="20"></circle>
                            <path d="M23.8147958,17.2460363 L21.3697958,17.2460363 L21.3697958,15.5650363 C21.3374498,15.3678494 21.3949414,15.1665267 21.526539,15.0161571 C21.6581366,14.8657875 21.8500613,14.7821154 22.0497958,14.7880363 L23.7747958,14.7880363 L23.7747958,12.0130363 L21.3987958,12.0040363 C20.4991294,11.9580698 19.6241042,12.3064883 19.0022743,12.9582859 C18.3804444,13.6100836 18.0735663,14.5005274 18.1617958,15.3970363 L18.1617958,17.2460363 L16.6367958,17.2460363 L16.6367958,20.1040363 L18.1617958,20.1040363 L18.1617958,28.1950363 L21.3697958,28.1950363 L21.3697958,20.1060363 L23.5337958,20.1060363 L23.8147958,17.2460363 Z" id="Facebook" fill="#485563"></path>
                        </g>
                    </g>
                </g>
            </g>
        </g>
    </g>
</svg>