<?xml version="1.0" encoding="UTF-8"?>
<svg width="45px" height="25px" viewBox="0 0 45 25" version="1.1" xmlns="http://www.w3.org/2000/svg" xmlns:xlink="http://www.w3.org/1999/xlink">
    <!-- Generator: Sketch 54.1 (76490) - https://sketchapp.com -->
    <title>jbl-2</title>
    <desc>Created with Sketch.</desc>
    <g id="Page-1" stroke="none" stroke-width="1" fill="none" fill-rule="evenodd" opacity="0.900000036">
        <g id="C&amp;D-Landing-Page-v2-Copy-4" transform="translate(-551.000000, -1352.000000)" fill="#000000" fill-rule="nonzero">
            <g id="Group-28" transform="translate(0.000000, 801.000000)">
                <g id="jbl-2" transform="translate(551.000000, 551.000000)">
                    <path d="M2.44559181,14.1871973 C2.65500815,14.3402082 2.8869344,14.458755 3.13281083,14.5384625 C3.61938161,14.6941592 4.14146193,14.6940737 4.62798307,14.5382177 C4.87521878,14.4588406 5.10853494,14.3403741 5.31930706,14.1871973 C5.53182223,14.0320968 5.71863954,13.8437057 5.8727526,13.6290896 C6.17454382,13.2063427 6.3366585,12.6976403 6.33588896,12.1758063 C6.33588896,11.9195174 6.29773696,11.6620045 6.21998414,11.414283 C6.06122536,10.9071209 5.74579582,10.4651541 5.32027293,10.1536448 C5.10976455,9.99993416 4.87649368,9.88111877 4.62919042,9.80164525 C4.14186628,9.64511003 3.61873592,9.64502453 3.13136202,9.80140047 C2.63282638,9.96324518 2.19892058,10.2834662 1.89383655,10.71469 C1.74264065,10.9282988 1.62577109,11.1648344 1.54757088,11.4155069 C1.470301,11.6632284 1.43214899,11.9202517 1.43214899,12.1758063 C1.43214899,12.4313609 1.47005953,12.6856916 1.54732941,12.9312101 C1.70618932,13.4366637 2.02109432,13.8769768 2.44559181,14.1871973 L2.44559181,14.1871973 Z M7.75862069,0 L0,0 L3.88739954,8.92825555 L7.75862069,0 Z" id="Shape"></path>
                    <path d="M9.9232617,21.1836731 C9.92299356,21.4220844 9.875975,21.6581347 9.78486155,21.8784922 C9.600015,22.3229986 9.24636973,22.676238 8.80135248,22.8608724 C8.58073422,22.9518287 8.34440731,22.9987125 8.10573501,22.9988729 L7.73731092,22.9988729 C7.4995713,22.9988729 7.26159055,22.9516685 7.04169345,22.8608724 C6.59660149,22.6763496 6.24291922,22.3230733 6.05818439,21.8784922 C5.96712358,21.6581271 5.92018586,21.4220714 5.92002535,21.1836731 L5.91689086,17.066298 L1.72413793,17.0605179 L1.72413793,20.1690205 C1.72413793,20.8012215 1.85048232,21.4336634 2.09207979,22.0176968 C2.33543207,22.6037332 2.69172059,23.1362842 3.14068997,23.5850738 C3.58994165,24.0334201 4.12302007,24.3892161 4.70962684,24.6322396 C5.29657695,24.8744417 5.92536303,24.9993837 6.56042743,25 L9.15265739,25 C9.7855849,25 10.4185124,24.8738006 11.003458,24.6322396 C11.5900826,24.3892494 12.1231671,24.0334493 12.5723949,23.5850738 C13.021413,23.1363242 13.3777083,22.6037629 13.621005,22.0176968 C13.8634088,21.4314055 13.9884126,20.8033405 13.9889469,20.1690205 L13.9889469,0.0293822974 L9.92133278,0.0351624215 L9.9232617,21.1836731 Z M40.9116336,17.066298 L40.908258,20.7219857 C40.908258,20.9594524 40.8607583,21.1974009 40.77034,21.4168047 C40.6787785,21.636966 40.5448382,21.8370322 40.3761166,22.0056549 C40.2074592,22.174316 40.0071183,22.3080508 39.7865899,22.399185 C39.5659864,22.4902178 39.3296601,22.5371834 39.0909724,22.5374263 L38.7227894,22.5374263 C38.4841042,22.5371585 38.2477826,22.4901939 38.027172,22.399185 C37.8066436,22.3080508 37.6063026,22.174316 37.4376452,22.0056549 C37.2695879,21.8377905 37.1343222,21.6362086 37.0434218,21.4168047 C36.9525213,21.1974009 36.9050216,20.9596933 36.9050216,20.7219857 L36.9069505,0.0351624215 L32.8395775,0.0293822974 L32.8410242,24.4817155 L44.8242106,24.4817155 L44.8275862,17.0605179 L40.9116336,17.066298 L40.9116336,17.066298 Z M29.4499795,13.4029035 C29.2491133,12.9279179 28.95719,12.4967533 28.5906448,12.1336846 C28.2482483,11.7945166 27.8371992,11.532404 27.3850686,11.3649281 C27.7612453,11.1846032 28.1065876,10.9461321 28.4083616,10.658308 C28.7157836,10.3666525 28.9870382,10.0210493 29.1698036,9.63137259 C29.3533146,9.23828873 29.4484512,8.80984335 29.4485328,8.37612231 L29.4509439,3.9256676 C29.4509439,3.41123656 29.3482289,2.89656468 29.151961,2.42187199 C28.9556932,1.9471793 28.6646671,1.51270664 28.3010654,1.14976301 C27.9379458,0.78681939 27.503215,0.495886478 27.028218,0.29936226 C26.553221,0.102838041 26.0384399,0 25.5231767,0 L17.4342426,0 L17.4342426,24.4829197 L25.8310808,24.4829197 C27.41967,24.4827933 28.8518096,23.5269749 29.4598652,22.0610477 C29.6568068,21.5841549 29.7583778,21.0733646 29.7588481,20.557493 C29.7588481,18.6811202 29.7540258,16.8049882 29.7588481,14.9288563 C29.7588212,14.404719 29.6538038,13.8858848 29.4499795,13.4029035 L29.4499795,13.4029035 Z M21.3810579,2.10926361 L23.5098644,2.10203846 C23.9919732,2.10166252 24.4543988,2.29300655 24.7950086,2.63380987 C24.9635482,2.80191515 25.0983316,3.00325614 25.1892321,3.22266001 C25.2801325,3.44206389 25.3266678,3.67977149 25.3276322,3.9174791 L25.3389646,8.82600863 C25.3391863,9.43593514 24.9712994,9.98584864 24.4070542,10.2190185 C24.223795,10.294194 24.0276938,10.3332057 23.8295832,10.3338985 L21.3810579,10.3432912 L21.3810579,2.10926361 L21.3810579,2.10926361 Z M25.3780253,21.3108358 C25.2249364,21.6802816 24.9310424,21.9737517 24.5611269,22.1265558 C24.3779371,22.2019608 24.1817904,22.2409815 23.9836559,22.2414358 L21.3812991,22.2508285 L21.3812991,12.5431101 L23.663937,12.5358849 C24.1460935,12.5352694 24.6086074,12.72665 24.9490813,13.0676564 C25.1171386,13.2355208 25.2524043,13.4371026 25.3433047,13.6565065 C25.4342051,13.8759104 25.4812226,14.113618 25.4817049,14.3513256 L25.4930373,20.7340276 C25.4927933,20.9319556 25.4537197,21.1279176 25.3780253,21.3108358 L25.3780253,21.3108358 Z" id="Shape"></path>
                </g>
            </g>
        </g>
    </g>
</svg>