<?xml version="1.0" encoding="UTF-8"?>
<svg width="40px" height="40px" viewBox="0 0 40 40" version="1.1" xmlns="http://www.w3.org/2000/svg" xmlns:xlink="http://www.w3.org/1999/xlink">
    <!-- Generator: Sketch 54.1 (76490) - https://sketchapp.com -->
    <title>Group 6</title>
    <desc>Created with Sketch.</desc>
    <g id="Page-1" stroke="none" stroke-width="1" fill="none" fill-rule="evenodd">
        <g id="contact-us-" transform="translate(-929.000000, -555.000000)">
            <g id="Group-6" transform="translate(929.000000, 555.000000)">
                <circle id="Circle" fill="#FFFFFF" cx="20" cy="20" r="20"></circle>
                <path d="M28,21.5833889 L28,27 L24.5706819,27 L24.5706819,21.9461608 C24.5706819,20.6765952 24.0746681,19.8101664 22.8333686,19.8101664 C21.8857939,19.8101664 21.3218915,20.3940759 21.0738101,20.9589102 C20.9833417,21.1608362 20.9600551,21.4418908 20.9600551,21.7245464 L20.9600551,27 L17.5295838,27 C17.5295838,27 17.5757852,18.4404553 17.5295838,17.5536226 L20.9597203,17.5536226 L20.9597203,18.8926088 C20.952764,18.9026233 20.9437246,18.9134213 20.9371776,18.9231293 L20.9597203,18.9231293 L20.9597203,18.8926088 C21.4154474,18.2498723 22.2293283,17.3317015 24.0510466,17.3317015 C26.3080325,17.3316675 28,18.6818264 28,21.5833889 Z M13.9411648,13 C12.7676051,13 12,13.7048676 12,14.6317925 C12,15.5385181 12.7453972,16.2647773 13.895633,16.2647773 L13.9185477,16.2647773 C15.1148362,16.2647773 15.8588198,15.5386543 15.8588198,14.6317925 C15.8362771,13.7048676 15.1148362,13 13.9411648,13 Z M12.2037399,27 L15.6329092,27 L15.6329092,17.5536226 L12.2037399,17.5536226 L12.2037399,27 Z" id="LinkedIn" fill="#485563" fill-rule="nonzero"></path>
            </g>
        </g>
    </g>
</svg>