
<svg width="32px" height="32px" viewBox="0 0 32 32" version="1.1" xmlns="http://www.w3.org/2000/svg" xmlns:xlink="http://www.w3.org/1999/xlink">
    <g id="Page-1" stroke="none" stroke-width="1" fill="none" fill-rule="evenodd">
        <g id="C&amp;D-Landing-Page-v2-Copy-4" transform="translate(-136.000000, -1152.000000)">
            <g id="Group-28" transform="translate(0.000000, 801.000000)">
                <g id="Group-16" transform="translate(136.000000, 351.000000)">
                    <g id="Group-3">
                        <circle id="Oval-Copy" fill="#E0EBF8" cx="16" cy="16" r="16"></circle>
                        <g id="Group" transform="translate(6.736842, 7.578947)" fill="#0074E4" fill-rule="nonzero">
                            <g id="Shape">
                                <g>
                                    <path d="M11.5862908,15.7180478 C12.1019772,14.7682944 12.5063644,13.4994833 12.753696,12.0402267 L15.8416312,12.0402267 C14.9747339,13.7690747 13.4486978,15.1096121 11.5862908,15.7180478 M9.440689,16.075442 C9.3998793,16.0766787 9.36030622,16.0816253 9.31949653,16.0816253 C9.27745012,16.0816253 9.23787709,16.0766787 9.19706735,16.075442 C8.37716304,15.9295164 7.68339785,14.3193876 7.33466029,12.0402267 L11.3030961,12.0402267 C10.9543585,14.3193876 10.2605933,15.9295164 9.440689,16.075442 M2.79612514,12.0402267 L5.88406035,12.0402267 C6.13139198,13.4994833 6.53577918,14.7682944 7.05146561,15.7180478 C5.18905852,15.1096121 3.66302245,13.7690747 2.79612514,12.0402267 M7.05146561,1.84769084 C6.53577918,2.79744424 6.13139198,4.06749209 5.88406035,5.52551196 L2.79612514,5.52551196 C3.66302245,3.79666397 5.18905852,2.45612661 7.05146561,1.84769084 M9.19706735,1.49029665 C9.23787709,1.49029665 9.27745012,1.48411336 9.31949653,1.48411336 C9.36030622,1.48411336 9.3998793,1.49029665 9.440689,1.49029665 C10.2605933,1.6362223 10.9543585,3.24758778 11.3030961,5.52551196 L7.33466029,5.52551196 C7.68339785,3.24758778 8.37716304,1.6362223 9.19706735,1.49029665 M7.08980198,8.78286932 C7.08980198,8.16701363 7.12071842,7.57960102 7.16400149,7.00950167 L11.4737549,7.00950167 C11.5170379,7.57960102 11.5479544,8.16701363 11.5479544,8.78286932 C11.5479544,9.39872506 11.5170379,9.98613768 11.4737549,10.5574737 L7.16400149,10.5574737 C7.12071842,9.98613768 7.08980198,9.39872506 7.08980198,8.78286932 M2.02074052,8.78286932 C2.02074052,8.1682503 2.11843651,7.57960102 2.26065219,7.00950167 L5.69485167,7.00950167 C5.64538535,7.583311 5.61323224,8.17319689 5.61323224,8.78286932 C5.61323224,9.39254175 5.64538535,9.98242769 5.69485167,10.5574737 L2.26065219,10.5574737 C2.11843651,9.98613768 2.02074052,9.39872506 2.02074052,8.78286932 M16.6170158,8.78286932 C16.6170158,9.39872506 16.5193199,9.98613768 16.3771042,10.5574737 L12.9429047,10.5574737 C12.992371,9.98242769 13.0232874,9.39254175 13.0232874,8.78286932 C13.0232874,8.17319689 12.992371,7.583311 12.9429047,7.00950167 L16.3771042,7.00950167 C16.5193199,7.57960102 16.6170158,8.1682503 16.6170158,8.78286932 M15.8416312,5.52551196 L12.753696,5.52551196 C12.5063644,4.06749209 12.1019772,2.79744424 11.5862908,1.84769084 C13.4486978,2.45612661 14.9747339,3.79666397 15.8416312,5.52551196 M9.31949653,0.000123665808 C4.46808686,0.000123665808 0.53551417,3.93269636 0.53551417,8.78286932 C0.53551417,13.6330423 4.46808686,17.565615 9.31949653,17.565615 C14.1696695,17.565615 18.1022422,13.6330423 18.1022422,8.78286932 C18.1022422,3.93269636 14.1696695,0.000123665808 9.31949653,0.000123665808"></path>
                                </g>
                            </g>
                        </g>
                    </g>
                </g>
            </g>
        </g>
    </g>
</svg>