<?xml version="1.0" encoding="UTF-8"?>
<svg width="94px" height="31px" viewBox="0 0 94 31" version="1.1" xmlns="http://www.w3.org/2000/svg" xmlns:xlink="http://www.w3.org/1999/xlink">
    <!-- Generator: Sketch 54.1 (76490) - https://sketchapp.com -->
    <title>samsung</title>
    <desc>Created with Sketch.</desc>
    <g id="Page-1" stroke="none" stroke-width="1" fill="none" fill-rule="evenodd" opacity="0.900000036">
        <g id="C&amp;D-Landing-Page-v2-Copy-4" transform="translate(-671.000000, -1349.000000)" fill="#000000" fill-rule="nonzero">
            <g id="Group-28" transform="translate(0.000000, 801.000000)">
                <g id="samsung" transform="translate(671.000000, 548.000000)">
                    <path d="M93.9419304,7.38041642 C92.6637938,0.0903179037 70.6119572,-2.18469881 44.6859152,2.29883269 C33.7978765,4.18274371 23.9665243,6.96140782 16.3103454,10.0874631 C17.4864184,10.1130407 18.3586413,10.3809086 18.8886232,10.9059482 C19.3029642,11.3179811 19.5122415,11.88348 19.5122415,12.5880283 L19.5122415,13.3111785 L16.9700137,13.3111785 L16.9700137,12.6726671 C16.9700137,12.1406517 16.6488409,11.8109324 16.0799999,11.8109324 C15.6019861,11.8109324 15.3074997,12.0253197 15.2124588,12.4475836 C15.1806061,12.6145079 15.184114,12.7861931 15.2227588,12.9516961 C15.4947725,14.056186 19.2697233,14.7421324 19.6803189,16.7804395 C19.7341598,17.0427268 19.8071962,17.6040402 19.6920234,18.4071787 C19.4565279,20.0511248 18.0023548,20.6854508 16.1511635,20.6854508 C13.5672675,20.6854508 12.5176037,19.4698143 12.5176037,17.7937799 L12.5194764,17.0008724 L15.2447633,17.0008724 L15.2461679,17.9886352 C15.2461679,18.543903 15.6525498,18.8503698 16.2059408,18.8503698 C16.7303046,18.8503698 17.0364955,18.640633 17.1423047,18.2118584 C17.1914638,18.0146779 17.2130001,17.7240226 17.1235774,17.5017295 C16.6193455,16.2451688 13.0944038,15.6582777 12.6603991,13.6264813 C12.5634855,13.1698038 12.5555264,12.7810233 12.6360537,12.2894672 C12.6773696,12.0457987 12.7533511,11.8092021 12.8617174,11.5867791 C4.36936552,15.5317846 -0.598512827,19.8725462 0.0578782249,23.6203711 C1.33741941,30.9113998 23.3887878,33.1840912 49.3143616,28.7005597 C60.7108459,26.7301497 70.9565391,23.7803478 78.754109,20.4747839 C78.6412771,20.4803644 78.5317225,20.4924557 78.4146771,20.4924557 C76.6402676,20.4924557 75.05594,19.832087 74.8916081,18.0304895 C74.8625808,17.7026304 74.8574308,17.5654411 74.8564945,17.3784917 L74.8574308,13.2367708 C74.8574308,13.0581922 74.878499,12.7447496 74.8986308,12.5829127 C75.1088445,10.8417716 76.494663,10.1237369 78.4156134,10.1237369 C79.902091,10.1237369 81.7247232,10.5473959 81.9251051,12.5843079 C81.9517915,12.8400845 81.9489824,13.1130679 81.9485142,13.2028222 L81.9485142,13.5939279 L79.3810045,13.5939279 L79.3810045,13.0102922 C79.3810045,12.9977359 79.3772591,12.7796282 79.3491682,12.643369 C79.3070318,12.4354924 79.1286545,11.9537023 78.3973543,11.9537023 C77.6749496,11.9537023 77.4876769,12.4364225 77.4408587,12.6438341 C77.4141723,12.7577709 77.4015314,12.921468 77.4015314,13.1028368 L77.4015314,17.6040402 C77.3991905,17.7602964 77.4071496,17.8826041 77.4230678,17.9723585 C77.4357087,18.0430458 77.5653951,18.6634204 78.4062498,18.6634204 C79.2410181,18.6634204 79.3702364,18.0430458 79.3819409,17.9723585 C79.4039455,17.8505158 79.4067545,17.7054207 79.4058182,17.6040402 L79.4058182,16.2093601 L78.3954816,16.2093601 L78.3954816,14.7072538 L81.9681778,14.7072538 L81.9681778,17.3794218 C81.9672415,17.5612557 81.9644324,17.6956547 81.9335324,18.0304895 C81.8904596,18.5029787 81.7406414,18.9029203 81.5056141,19.2447309 C89.7751113,15.3443701 94.5898942,11.0738307 93.9419304,7.38041642 Z M26.7166249,20.3008558 L25.4160156,11.5226024 L25.3691974,11.5226024 L24.0353471,20.3008558 L21.2941419,20.3008558 L23.1378423,10.3874193 L27.6103842,10.3874193 L29.4428482,20.3008558 L26.7166249,20.3008558 L26.7166249,20.3008558 Z M39.9015642,20.3008558 L39.8411687,11.6923451 L39.7971596,11.6923451 L38.1842729,20.3008558 L35.6116132,20.3008558 L34.0066856,11.6923451 L33.9608038,11.6923451 L33.902281,20.3008558 L31.3530305,20.3008558 L31.5740123,10.3874193 L35.6743496,10.3874193 L36.8682135,17.7514605 L36.9267362,17.7514605 L38.1238774,10.3874193 L42.2223419,10.3874193 L42.4423874,20.3008558 L39.9015642,20.3008558 Z M51.9062168,18.3797409 C51.6318622,20.2999257 49.7380663,20.6356906 48.3995342,20.6356906 C46.1770746,20.6356906 44.8024925,19.6921074 44.8024925,17.7719226 L44.803897,16.9887811 L47.4964113,16.9887811 L47.498284,17.9644527 C47.498284,18.4941428 47.8742341,18.8182815 48.4547796,18.8182815 C48.9725888,18.8182815 49.2759707,18.6118 49.3813117,18.1876759 C49.4300026,17.9900303 49.4501344,17.7017003 49.3639889,17.4840577 C48.8677161,16.2512144 45.3703972,15.6471166 44.945288,13.6469434 C44.8479061,13.1935213 44.8408834,12.8084612 44.9209425,12.3220206 C45.2168335,10.5087969 46.9687702,10.1321077 48.3789342,10.1321077 C49.6402163,10.1321077 50.558321,10.4055562 51.1089029,10.9524531 C51.5194985,11.3607656 51.7273713,11.9211489 51.7273713,12.6182564 L51.7273713,13.3335008 L49.2094889,13.3335008 L49.2094889,12.7024302 C49.2094889,12.1620439 48.8719297,11.8495314 48.3293069,11.8495314 C47.8480159,11.8495314 47.5568067,12.0620585 47.4612976,12.480137 C47.4302993,12.6453383 47.4344457,12.8151546 47.4734703,12.9786689 C47.7431431,14.0780433 51.484853,14.7500382 51.8945122,16.7692783 C51.9474168,17.0269151 52.019985,17.5798576 51.9062168,18.3797409 Z M61.2314642,17.4789421 C61.2352097,17.6649615 61.2169506,18.0365352 61.2066506,18.1318701 C61.0530869,19.76512 59.8770139,20.5952314 57.7200998,20.5952314 C55.5547585,20.5952314 54.3777491,19.76512 54.2251218,18.1318701 C54.2078246,17.9152797 54.1995463,17.6980718 54.2003082,17.4808023 L54.20026,10.3850941 L56.7762451,10.3850941 L56.7762451,17.7044906 C56.773436,17.8681876 56.7818633,17.9891002 56.7982496,18.073274 C56.830086,18.2360409 56.9930133,18.7643359 57.7200998,18.7643359 C58.4448455,18.7643359 58.6077728,18.2355759 58.64195,18.0751342 C58.6564637,17.9886352 58.6653591,17.861677 58.6653591,17.7040256 L58.6653591,10.3850941 L61.2314642,10.3850941 L61.2314642,17.4789421 Z M72.3297166,20.1999403 L68.7453159,20.1999403 L66.339329,12.3475982 L66.2990653,12.3475982 L66.4324972,20.1999403 L63.9342785,20.1999403 L63.9342785,10.3874193 L67.6689656,10.3874193 L69.8928298,17.9305041 L69.9447979,17.9305041 L69.8132388,10.3874193 L72.3297166,10.3874193 L72.3297166,20.1999403 L72.3297166,20.1999403 Z" id="Shape"></path>
                </g>
            </g>
        </g>
    </g>
</svg>