<?xml version="1.0" encoding="UTF-8"?>
<svg width="32px" height="32px" viewBox="0 0 32 32" version="1.1" xmlns="http://www.w3.org/2000/svg" xmlns:xlink="http://www.w3.org/1999/xlink">
    <!-- Generator: Sketch 54.1 (76490) - https://sketchapp.com -->
    <title>Group 21</title>
    <desc>Created with Sketch.</desc>
    <g id="Page-1" stroke="none" stroke-width="1" fill="none" fill-rule="evenodd">
        <g id="C&amp;D-Landing-Page-v2-Copy-4" transform="translate(-888.000000, -1179.000000)">
            <g id="Group-28" transform="translate(0.000000, 801.000000)">
                <g id="Group-24" transform="translate(888.000000, 378.000000)">
                    <g id="Group-21">
                        <circle id="Oval-Copy" fill="#E0EBF8" cx="16" cy="16" r="16"></circle>
                        <path d="M13.9765808,16 C13.9765808,17.3489461 15.0819672,18.4543326 16.4309133,18.4543326 C17.7798595,18.4543326 18.8852459,17.3489461 18.8852459,16 C18.8852459,14.6510539 17.7798595,13.5456674 16.4309133,13.5456674 C15.0819672,13.5456674 13.9765808,14.6323185 13.9765808,16 Z M17.9484778,16 C17.9484778,16.8430913 17.2740047,17.5175644 16.4309133,17.5175644 C15.587822,17.5175644 14.9133489,16.8430913 14.9133489,16 C14.9133489,15.1569087 15.587822,14.4824356 16.4309133,14.4824356 C17.2740047,14.4824356 17.9484778,15.1569087 17.9484778,16 Z M24.8618267,16 C24.8618267,14.6510539 23.7564403,13.5456674 22.4074941,13.5456674 C21.058548,13.5456674 19.9531616,14.6323185 19.9531616,16 C19.9531616,17.1990632 20.8149883,18.1920375 21.9391101,18.4168618 L21.9391101,23.0632319 L10.8477752,23.0632319 L10.8477752,20.6838407 L11.8782201,21.7142857 C12.0655738,21.9016393 12.3653396,21.9016393 12.5339578,21.7142857 C12.6276347,21.6206089 12.6651054,21.5081967 12.6651054,21.3770492 C12.6651054,21.2459016 12.6276347,21.1334895 12.5339578,21.0398126 L10.6978923,19.2037471 C10.5105386,19.0163934 10.2107728,19.0163934 10.0421546,19.2037471 L8.22482436,21.058548 C8.03747073,21.2459016 8.03747073,21.5456674 8.22482436,21.7142857 C8.41217799,21.9016393 8.71194379,21.9016393 8.88056206,21.7142857 L9.91100703,20.6838407 L9.91100703,23.5316159 C9.91100703,23.793911 10.117096,24 10.3793911,24 L22.3887588,24 C22.6510539,24 22.8571429,23.793911 22.8571429,23.5316159 L22.8571429,18.4168618 C24,18.1920375 24.8618267,17.1990632 24.8618267,16 Z M20.8899297,16 C20.8899297,15.1569087 21.5644028,14.4824356 22.4074941,14.4824356 C23.2505855,14.4824356 23.9250585,15.1569087 23.9250585,16 C23.9250585,16.8430913 23.2505855,17.5175644 22.4074941,17.5175644 C21.5644028,17.5175644 20.8899297,16.8430913 20.8899297,16 Z M22.4824356,8 L10.4543326,8 C10.1920375,8 9.98594848,8.20608899 9.98594848,8.46838407 L9.98594848,13.5831382 C8.8618267,13.8079625 8,14.8009368 8,16 C8,17.3489461 9.10538642,18.4543326 10.4543326,18.4543326 C11.8032787,18.4543326 12.9086651,17.3489461 12.9086651,16 C12.9086651,14.8009368 12.0468384,13.8079625 10.9227166,13.5831382 L10.9227166,8.93676815 L21.9953162,8.93676815 L21.9953162,11.3161593 L20.9648712,10.2857143 C20.7775176,10.0983607 20.4777518,10.0983607 20.3091335,10.2857143 C20.1217799,10.4730679 20.1217799,10.7728337 20.3091335,10.941452 L22.1451991,12.7775176 C22.3325527,12.9648712 22.6323185,12.9648712 22.8009368,12.7775176 L24.6370023,10.941452 C24.7306792,10.8477752 24.7681499,10.735363 24.7681499,10.6042155 C24.7681499,10.4730679 24.7306792,10.3606557 24.6370023,10.2669789 C24.4496487,10.0796253 24.1498829,10.0796253 23.9812646,10.2669789 L22.9508197,11.3161593 L22.9508197,8.46838407 C22.9508197,8.20608899 22.7259953,8 22.4824356,8 Z M11.971897,16 C11.971897,16.8430913 11.2974239,17.5175644 10.4543326,17.5175644 C9.61124122,17.5175644 8.93676815,16.8430913 8.93676815,16 C8.93676815,15.1569087 9.61124122,14.4824356 10.4543326,14.4824356 C11.2974239,14.4824356 11.971897,15.1569087 11.971897,16 Z" id="Shape" fill="#0074E4" fill-rule="nonzero"></path>
                    </g>
                </g>
            </g>
        </g>
    </g>
</svg>