<svg width="32px" height="32px" viewBox="0 0 32 32" version="1.1" xmlns="http://www.w3.org/2000/svg" xmlns:xlink="http://www.w3.org/1999/xlink">
    <g id="Page-1" stroke="none" stroke-width="1" fill="none" fill-rule="evenodd">
        <g id="C&amp;D-Landing-Page-v2-Copy-4" transform="translate(-136.000000, -1280.000000)">
            <g id="Group-28" transform="translate(0.000000, 801.000000)">
                <g id="Group-18" transform="translate(136.000000, 479.000000)">
                    <g id="Group-12">
                        <circle id="Oval-Copy" fill="#E0EBF8" cx="16" cy="16" r="16"></circle>
                        <g id="Group-11" transform="translate(8.421053, 9.263158)" stroke="#0074E4" stroke-linejoin="round">
                            <path d="M1.37799043,6.21724894e-14 L4.13397129,6.21724894e-14 L4.13397129,13.7799043 L1.37799043,13.7799043 C0.61694733,13.7799043 4.96935826e-13,13.162957 4.96935826e-13,12.4019139 L4.96935826e-13,1.37799043 C4.96935826e-13,0.61694733 0.61694733,6.21724894e-14 1.37799043,6.21724894e-14 Z" id="Path" stroke-width="1.5"></path>
                            <path d="M4.13397129,6.21724894e-14 L13.7799043,6.21724894e-14 C14.5409474,6.21724894e-14 15.1578947,0.61694733 15.1578947,1.37799043 L15.1578947,12.4019139 C15.1578947,13.162957 14.5409474,13.7799043 13.7799043,13.7799043 L4.13397129,13.7799043 L4.13397129,6.21724894e-14 Z" id="Path" stroke-width="1.5"></path>
                            <rect id="Rectangle" stroke-width="1.5" x="6.88995215" y="2.75598086" width="5.51196172" height="2.75598086"></rect>
                            <path d="M9.64593301,7.57894737 L9.64593301,8.9569378" id="Path" stroke-width="2"></path>
                            <path d="M12.4019139,7.57894737 L12.4019139,8.9569378" id="Path" stroke-width="2"></path>
                            <path d="M6.88995215,7.57894737 L6.88995215,8.9569378" id="Path" stroke-width="2"></path>
                            <path d="M9.64593301,10.3349282 L9.64593301,11.7129187" id="Path" stroke-width="2"></path>
                            <path d="M12.4019139,10.3349282 L12.4019139,11.7129187" id="Path" stroke-width="2"></path>
                            <path d="M6.88995215,10.3349282 L6.88995215,11.7129187" id="Path" stroke-width="2"></path>
                        </g>
                    </g>
                </g>
            </g>
        </g>
    </g>
</svg>