
<svg width="40px" height="40px" viewBox="0 0 40 40" version="1.1" xmlns="http://www.w3.org/2000/svg" xmlns:xlink="http://www.w3.org/1999/xlink">
    <g id="Page-1" stroke="none" stroke-width="1" fill="none" fill-rule="evenodd">
        <g id="contact-us-" transform="translate(-829.000000, -555.000000)">
            <g id="Group-2" transform="translate(238.000000, 140.000000)">
                <g id="Contacts-#2" transform="translate(0.000000, 16.000000)">
                    <g id="Group-4" transform="translate(585.000000, 99.000000)">
                        <g id="Group-3" transform="translate(6.000000, 300.000000)">
                            <circle id="Circle" fill="#FFFFFF" cx="20" cy="20" r="20"></circle>
                            <path d="M28.1895366,14.589 C27.6018869,14.8617969 26.9754111,15.0416093 26.3325366,15.122 C27.0159444,14.688088 27.5206234,14.0229907 27.7545366,13.248 C27.1242236,13.6413014 26.4291116,13.919617 25.7015366,14.07 C25.1044622,13.3928852 24.2462935,13.0034703 23.3435366,13 C21.5159767,13.0442147 20.0696172,14.560386 20.1115366,16.388 C20.110888,16.6473183 20.1390609,16.9059054 20.1955366,17.159 C17.5655321,17.0063621 15.1328418,15.714429 13.5335366,13.621 C13.2455869,14.1412498 13.0951741,14.72638 13.0965366,15.321 C13.0878527,16.4388554 13.6244655,17.4908107 14.5345366,18.14 C14.0188152,18.122107 13.5156711,17.976044 13.0705366,17.715 L13.0705366,17.758 C13.0439656,19.3377124 14.1237789,20.7216397 15.6625366,21.08 C15.1875111,21.2158123 14.6868387,21.2357021 14.2025366,21.138 C14.5938449,22.4927187 15.8122548,23.4419403 17.2215366,23.49 C16.0932527,24.4254039 14.6741428,24.9381647 13.2085366,24.94 C12.9507837,24.9402015 12.6932741,24.9241698 12.4375366,24.892 C13.8996786,25.8829767 15.6252146,26.4131071 17.3915366,26.414 C23.3355366,26.414 26.5855366,21.253 26.5855366,16.778 C26.5855366,16.63 26.5855366,16.485 26.5765366,16.34 C27.2134269,15.8562101 27.7595382,15.2633763 28.1895366,14.589 L28.1895366,14.589 Z" id="Twitter" fill="#465360"></path>
                        </g>
                    </g>
                </g>
            </g>
        </g>
    </g>
</svg>