<?xml version="1.0" encoding="UTF-8"?>
<svg width="32px" height="32px" viewBox="0 0 32 32" version="1.1" xmlns="http://www.w3.org/2000/svg" xmlns:xlink="http://www.w3.org/1999/xlink">
    <!-- Generator: Sketch 54.1 (76490) - https://sketchapp.com -->
    <title>Group 22</title>
    <desc>Created with Sketch.</desc>
    <g id="Page-1" stroke="none" stroke-width="1" fill="none" fill-rule="evenodd">
        <g id="C&amp;D-Landing-Page-v2-Copy-14" transform="translate(-1079.000000, -1179.000000)">
            <g id="Group-28" transform="translate(0.000000, 801.000000)">
                <g id="Group-23" transform="translate(1079.000000, 378.000000)">
                    <g id="Group-22">
                        <circle id="Oval-Copy" fill="#E0EBF8" cx="16" cy="16" r="16"></circle>
                        <g id="noun_Video-Conference_1235415" transform="translate(7.000000, 8.000000)" fill="#0074E4" fill-rule="nonzero">
                            <path d="M0.0397222215,15.6884719 C0.0397222215,15.9876262 0.282234644,16.2301386 0.581388878,16.2301386 L4.67819435,16.2301386 C4.97734859,16.2301386 5.21986101,15.9876262 5.21986101,15.6884719 C5.2181078,14.6086651 4.54685858,13.6431598 3.53527771,13.2654164 C4.14926719,12.8463705 4.41645819,12.0747199 4.19306392,11.3657223 C3.96966966,10.6567247 3.30838553,10.1776224 2.56507653,10.1862404 C1.82176754,10.1948585 1.1717693,10.6891642 0.964873396,11.4031506 C0.757977493,12.117137 1.04298761,12.8823854 1.66652775,13.2870831 C0.685361247,13.6809854 0.041650554,14.631191 0.0397222215,15.6884719 Z M2.58374995,11.2720831 C2.82830823,11.2698875 3.04997611,11.4156127 3.14492115,11.6409991 C3.2398662,11.8663854 3.18928524,12.1267968 3.01687112,12.3002527 C2.84445701,12.4737086 2.58435509,12.5258573 2.35840087,12.4322718 C2.13244664,12.3386862 1.98538869,12.1179002 1.98611107,11.8733331 C1.98708654,11.5430827 2.25351138,11.275048 2.58374995,11.2720831 Z M2.62888884,14.1826386 C3.25109537,14.1837897 3.80884333,14.5666141 4.03361103,15.1468053 L1.22416664,15.1468053 C1.4491733,14.5660001 2.00782806,14.1830455 2.63069439,14.1826386 L2.62888884,14.1826386 Z" id="Shape"></path>
                            <path d="M9.60194426,13.2762497 C10.2203488,12.8640835 10.4960425,12.0956826 10.2807241,11.3843858 C10.0654057,10.673089 9.40983887,10.1865922 8.6666665,10.1865922 C7.92349413,10.1865922 7.26792728,10.673089 7.05260888,11.3843858 C6.83729049,12.0956826 7.11298423,12.8640835 7.73138874,13.2762497 C6.73558093,13.662556 6.07888319,14.6203597 6.07749988,15.6884719 C6.07749988,15.9876262 6.32001231,16.2301386 6.61916654,16.2301386 L10.7141665,16.2301386 C11.0133207,16.2301386 11.2558331,15.9876262 11.2558331,15.6884719 C11.2544498,14.6203597 10.5977521,13.662556 9.60194426,13.2762497 L9.60194426,13.2762497 Z M8.6666665,11.2720831 C8.99972488,11.2720831 9.26972204,11.5420803 9.26972204,11.8751387 C9.26972204,12.208197 8.99972488,12.4781942 8.6666665,12.4781942 C8.33360812,12.4781942 8.06361096,12.208197 8.06361096,11.8751387 C8.06361096,11.7151984 8.12714698,11.5618088 8.24024184,11.448714 C8.35333669,11.3356191 8.50672623,11.2720831 8.6666665,11.2720831 L8.6666665,11.2720831 Z M7.2619443,15.1468053 C7.48549862,14.5650433 8.04433295,14.181113 8.66756928,14.181113 C9.29080561,14.181113 9.84963993,14.5650433 10.0731943,15.1468053 L7.2619443,15.1468053 Z" id="Shape"></path>
                            <path d="M16.6111108,8.32541651 L16.6111108,0.561527767 C16.6111108,0.262373533 16.3685984,0.0198611107 16.0694441,0.0198611107 L1.08333331,0.0198611107 C0.784179079,0.0198611107 0.541666656,0.262373533 0.541666656,0.561527767 L0.541666656,8.32541651 C0.541666656,8.62457074 0.784179079,8.86708316 1.08333331,8.86708316 L16.0694441,8.86708316 C16.3685984,8.86708316 16.6111108,8.62457074 16.6111108,8.32541651 Z M8.48611095,4.68541658 C8.08723864,4.68541658 7.76388874,4.36206668 7.76388874,3.96319437 C7.76388874,3.56432206 8.08723864,3.24097216 8.48611095,3.24097216 C8.88498326,3.24097216 9.20833316,3.56432206 9.20833316,3.96319437 C9.20833316,4.36206668 8.88498326,4.68541658 8.48611095,4.68541658 Z M10.1598609,7.78555541 L6.81236098,7.78555541 C6.99416516,7.00796623 7.68755119,6.45799754 8.48611095,6.45799754 C9.28467071,6.45799754 9.97805673,7.00796623 10.1598609,7.78555541 L10.1598609,7.78555541 Z M15.5277775,7.78555541 L11.2594442,7.78555541 C11.1112119,6.7395745 10.3883812,5.86534006 9.38888871,5.52319434 C10.0966087,5.114592 10.4416518,4.28158434 10.2301437,3.49222523 C10.0186355,2.70286613 9.30331563,2.15398187 8.48611095,2.15398187 C7.66890627,2.15398187 6.95358637,2.70286613 6.74207824,3.49222523 C6.5305701,4.28158434 6.87561317,5.114592 7.58333319,5.52319434 C6.58436164,5.86504847 5.86164132,6.7384518 5.71277767,7.78374985 L1.62499997,7.78374985 L1.62499997,1.10319442 L15.5277775,1.10319442 L15.5277775,7.78555541 Z" id="Shape"></path>
                            <path d="M15.6668053,13.2870831 C16.2892028,12.8824954 16.5733998,12.11818 16.3665328,11.4052452 C16.1596659,10.6923104 15.5105013,10.1988215 14.7682104,10.1902152 C14.0259195,10.181609 13.3654877,10.6599142 13.1421468,11.367861 C12.9188058,12.0758078 13.1852055,12.846507 13.7980553,13.2654164 C12.7864744,13.6431598 12.1152252,14.6086651 12.113472,15.6884719 C12.113472,15.9876262 12.3559844,16.2301386 12.6551386,16.2301386 L16.7519441,16.2301386 C17.0510984,16.2301386 17.2936108,15.9876262 17.2936108,15.6884719 C17.2916824,14.631191 16.6479718,13.6809854 15.6668053,13.2870831 Z M14.749583,11.2720831 C15.0826414,11.2720831 15.3526386,11.5420803 15.3526386,11.8751387 C15.3526386,12.208197 15.0826414,12.4781942 14.749583,12.4781942 C14.4165247,12.4781942 14.1465275,12.208197 14.1465275,11.8751387 C14.1465275,11.5420803 14.4165247,11.2720831 14.749583,11.2720831 Z M13.3051386,15.1468053 C13.528693,14.5650433 14.0875273,14.181113 14.7107636,14.181113 C15.3339999,14.181113 15.8928343,14.5650433 16.1163886,15.1468053 L13.3051386,15.1468053 Z" id="Shape"></path>
                        </g>
                    </g>
                </g>
            </g>
        </g>
    </g>
</svg>